<svg width="32" height="32" viewBox="0 0 32 32" fill="none" xmlns="http://www.w3.org/2000/svg">
<path d="M6.66665 1.33331H2.66665C2.31302 1.33331 1.97388 1.47379 1.72384 1.72384C1.47379 1.97388 1.33331 2.31302 1.33331 2.66665V29.3333C1.33331 29.6869 1.47379 30.0261 1.72384 30.2761C1.97388 30.5262 2.31302 30.6666 2.66665 30.6666H6.66665V1.33331Z" fill="#C4B5FD"/>
<path d="M9.33331 30.6666H22.6666V1.33331H9.33331V30.6666ZM16 25.3333C15.6464 25.3333 15.3072 25.1928 15.0572 24.9428C14.8071 24.6927 14.6666 24.3536 14.6666 24C14.6666 23.6464 14.8071 23.3072 15.0572 23.0572C15.3072 22.8071 15.6464 22.6666 16 22.6666C16.3536 22.6666 16.6927 22.8071 16.9428 23.0572C17.1928 23.3072 17.3333 23.6464 17.3333 24C17.3333 24.3536 17.1928 24.6927 16.9428 24.9428C16.6927 25.1928 16.3536 25.3333 16 25.3333ZM16 6.66665C16.3536 6.66665 16.6927 6.80712 16.9428 7.05717C17.1928 7.30722 17.3333 7.64636 17.3333 7.99998C17.3333 8.3536 17.1928 8.69274 16.9428 8.94279C16.6927 9.19284 16.3536 9.33331 16 9.33331C15.6464 9.33331 15.3072 9.19284 15.0572 8.94279C14.8071 8.69274 14.6666 8.3536 14.6666 7.99998C14.6666 7.64636 14.8071 7.30722 15.0572 7.05717C15.3072 6.80712 15.6464 6.66665 16 6.66665ZM16 14.6666C16.3536 14.6666 16.6927 14.8071 16.9428 15.0572C17.1928 15.3072 17.3333 15.6464 17.3333 16C17.3333 16.3536 17.1928 16.6927 16.9428 16.9428C16.6927 17.1928 16.3536 17.3333 16 17.3333C15.6464 17.3333 15.3072 17.1928 15.0572 16.9428C14.8071 16.6927 14.6666 16.3536 14.6666 16C14.6666 15.6464 14.8071 15.3072 15.0572 15.0572C15.3072 14.8071 15.6464 14.6666 16 14.6666Z" fill="#7C3AED"/>
<path d="M29.3333 1.33331H25.3333V30.6666H29.3333C29.6869 30.6666 30.0261 30.5262 30.2761 30.2761C30.5262 30.0261 30.6666 29.6869 30.6666 29.3333V2.66665C30.6666 2.31302 30.5262 1.97388 30.2761 1.72384C30.0261 1.47379 29.6869 1.33331 29.3333 1.33331Z" fill="#1DB5BE"/>
</svg>
